<svg xmlns="http://www.w3.org/2000/svg" version="1.1" x="0px" y="0px" viewBox="0 0 283.46 354.325" enable-background="new 0 0 283.46 283.46" xml:space="preserve"><g><path fill="#FFFFFF" d="M231.73,154.557c0-4.426-1.875-8.414-4.859-11.24v-14.928c0-0.018-0.004-0.033-0.008-0.051   c-0.109-31.32-38.254-56.781-85.133-56.781c-46.945,0-85.141,25.533-85.141,56.916v14.844c-2.984,2.826-4.859,6.814-4.859,11.24   c0,3.646,1.273,6.996,3.391,9.646c-1.828,2.301-2.941,5.193-2.941,8.354c0,3.93,1.699,7.461,4.387,9.93v3.245   c0,14.432,11.742,26.172,26.172,26.172h117.989c14.434,0,26.172-11.74,26.172-26.172v-3.249c2.684-2.469,4.383-5.998,4.383-9.926   c0-3.16-1.109-6.055-2.941-8.354C230.457,161.553,231.73,158.203,231.73,154.557z M141.73,80.557   c39.629,0,72.286,19.15,75.821,43.52H65.91C69.445,99.707,102.101,80.557,141.73,80.557z M65.589,133.076h152.282v5.98h-1.641   h-6.961h-1.859c-1.195,0-2.336,0.475-3.18,1.318l-17.07,17.068l-17.07-17.068c-0.844-0.844-1.984-1.318-3.18-1.318h-0.523H67.23   h-1.641V133.076z M67.23,148.057h97.817l13,13H129.41h-23h-7h-23h-9.18c-3.586,0-6.5-2.916-6.5-6.5S63.644,148.057,67.23,148.057z    M120.41,170.057v6c0,1.379-1.121,2.5-2.5,2.5s-2.5-1.121-2.5-2.5v-6H120.41z M107.539,180.994   c-1.203,0.037-2.465,0.063-3.836,0.063c-1.551,0-2.957-0.033-4.293-0.082v-10.918h7v6   C106.41,177.826,106.824,179.494,107.539,180.994z M90.41,170.057v18.001c0,1.379-1.121,2.5-2.5,2.5s-2.5-1.121-2.5-2.5v-18.001   H90.41z M61.179,172.557c0-1.266,0.527-2.406,1.371-3.225c1.48,0.469,3.051,0.725,4.68,0.725h9.18v7.596   c-2.82-0.357-6.18-0.596-10.73-0.596C63.199,177.057,61.179,175.037,61.179,172.557z M200.727,202.903H82.738   c-9.359,0-16.984-7.531-17.156-16.85c0.031,0,0.063,0.004,0.098,0.004c4.77,0,7.973,0.264,10.73,0.676v1.324   c0,6.342,5.156,11.5,11.5,11.5c5.688,0,10.406-4.15,11.328-9.58c1.391,0.049,2.859,0.08,4.465,0.08   c10.918,0,16.695-1.217,21.801-2.291c4.539-0.955,8.125-1.709,16.223-1.709c8.098,0,11.684,0.754,16.231,1.711   c5.098,1.072,10.875,2.289,21.797,2.289s16.699-1.217,21.805-2.291c4.539-0.955,8.125-1.709,16.223-1.709   c0.035,0,0.066-0.004,0.102-0.006C217.707,195.372,210.086,202.903,200.727,202.903z M217.781,177.057   c-9.031,0-13.426,0.924-18.09,1.902c-4.664,0.984-9.953,2.098-19.938,2.098s-15.273-1.113-19.953-2.1   c-4.648-0.977-9.043-1.9-18.075-1.9c-5.52,0-9.301,0.348-12.48,0.84c0.102-0.602,0.164-1.213,0.164-1.84v-6h86.821   c1.629,0,3.199-0.256,4.68-0.725c0.844,0.818,1.371,1.959,1.371,3.225C222.281,175.037,220.262,177.057,217.781,177.057z    M216.23,161.057h-19.957l13-13h6.957c3.586,0,6.5,2.916,6.5,6.5S219.816,161.057,216.23,161.057z"/><path fill="#FFFFFF" d="M98.269,99.068c-5.328,0-5.742,3.52-5.742,4.598c0,2.4,2.047,4.4,4.445,4.518   c0.156,0.008,0.41,0.014,0.777,0.014c0.18,0,0.359-0.012,0.535-0.031c4.664-0.563,4.688-4.141,4.641-4.852   C102.785,100.938,100.648,99.068,98.269,99.068z"/><path fill="#FFFFFF" d="M120.269,91.068c-5.328,0-5.742,3.52-5.742,4.598c0,2.4,2.047,4.4,4.445,4.518   c0.156,0.008,0.41,0.014,0.777,0.014c0.18,0,0.359-0.012,0.535-0.031c4.664-0.563,4.688-4.141,4.641-4.852   C124.785,92.938,122.648,91.068,120.269,91.068z"/><path fill="#FFFFFF" d="M142.269,99.068c-5.328,0-5.742,3.52-5.742,4.598c0,2.4,2.047,4.4,4.445,4.518   c0.156,0.008,0.41,0.014,0.777,0.014c0.18,0,0.359-0.012,0.535-0.031c4.665-0.563,4.688-4.141,4.641-4.852   C146.785,100.938,144.648,99.068,142.269,99.068z"/><path fill="#FFFFFF" d="M164.27,91.068c-5.328,0-5.742,3.52-5.742,4.598c0,2.4,2.047,4.4,4.445,4.518   c0.156,0.008,0.41,0.014,0.777,0.014c0.18,0,0.359-0.012,0.535-0.031c4.664-0.563,4.688-4.141,4.641-4.852   C168.785,92.938,166.648,91.068,164.27,91.068z"/><path fill="#FFFFFF" d="M120.269,109.068c-5.328,0-5.742,3.52-5.742,4.598c0,2.4,2.047,4.4,4.445,4.518   c0.156,0.008,0.41,0.014,0.777,0.014c0.18,0,0.359-0.012,0.535-0.031c4.664-0.563,4.688-4.141,4.641-4.852   C124.785,110.938,122.648,109.068,120.269,109.068z"/><path fill="#FFFFFF" d="M164.27,109.068c-5.328,0-5.742,3.52-5.742,4.598c0,2.4,2.047,4.4,4.445,4.518   c0.156,0.008,0.41,0.014,0.777,0.014c0.18,0,0.359-0.012,0.535-0.031c4.664-0.563,4.688-4.141,4.641-4.852   C168.785,110.938,166.648,109.068,164.27,109.068z"/><path fill="#FFFFFF" d="M186.27,99.068c-5.328,0-5.742,3.52-5.742,4.598c0,2.4,2.047,4.4,4.445,4.518   c0.156,0.008,0.41,0.014,0.777,0.014c0.18,0,0.359-0.012,0.535-0.031c4.664-0.563,4.688-4.141,4.641-4.852   C190.785,100.938,188.648,99.068,186.27,99.068z"/></g></svg>