<?xml version="1.0" encoding="utf-8"?>
<!-- Generator: Adobe Illustrator 21.1.0, SVG Export Plug-In . SVG Version: 6.00 Build 0)  -->
<svg version="1.1" id="Layer_1" xmlns="http://www.w3.org/2000/svg" xmlns:xlink="http://www.w3.org/1999/xlink" x="0px" y="0px"
	 viewBox="0 0 800 430" style="enable-background:new 0 0 800 430;" xml:space="preserve">
<style type="text/css">
	.st0{fill:#4F4D45;}
	.st1{fill:#ACF07D;}
	.st2{fill:#F6DB60;}
	.st3{fill:#2D6471;}
	.st4{fill:#FBFAF7;}
	.st5{fill:#FFFFFF;}
	.st6{fill:#48A9BF;}
</style>
<path class="st4" d="M259.1,125.4l77.7-13.5L330,323.3c-0.6,14.8-12.5,26.5-27.2,27h0c-15,0.4-27.7-11.1-28.7-26.1L259.1,125.4z"/>
<path class="st4" d="M689.6,121.5c-60.4,0.6-108.9,52.2-108.3,115.3c0.6,63.1,50.1,113.8,110.5,113.3
	c60.4-0.6,108.8-52.2,108.3-115.3C799.4,171.6,749.9,120.9,689.6,121.5z M691,296.7c-27.1,0-49.1-22-49.1-49.1
	c0-27.1,22-49.1,49.1-49.1c27.1,0,49.1,22,49.1,49.1C740.1,274.7,718.1,296.7,691,296.7z"/>
<path class="st4" d="M125.8,121.5c-21,0.2-40.5,6.6-57,17.4l-1-26.5L0,134.6l22.4,269.3c1.3,15.7,15.1,27.3,30.8,26h0
	c15.1-1.3,26.6-14.3,25.9-29.5l-2.5-63.2c15.4,8.4,32.9,13,51.4,12.9c60.4-0.6,108.8-52.2,108.3-115.3
	C235.6,171.6,186.2,120.9,125.8,121.5z M127.2,296.7c-27.1,0-49.1-22-49.1-49.1c0-27.1,22-49.1,49.1-49.1s49.1,22,49.1,49.1
	C176.3,274.7,154.3,296.7,127.2,296.7z"/>
<polygon class="st2" points="342.6,81 250,97.4 227.3,24.5 364.6,0 "/>
<path class="st4" d="M510.6,233.4l82.9-107.7l-79.8-13.5l-43.4,64.5L433.7,125l-77.5,13.1l76.3,95.1L383.5,306
	c-12.6,18.8,0.8,44.1,23.5,44.1c8.8,0,17.1-4.1,22.4-11l43-55.9l45.5,56.7c5.3,6.6,13.4,10.5,21.8,10.4c22.6-0.1,35.7-25.6,22.6-44
	L510.6,233.4z"/>
</svg>
