<?xml version="1.0" encoding="UTF-8" standalone="no"?>
<svg width="156px" height="41px" viewBox="0 0 156 41" version="1.1" xmlns="http://www.w3.org/2000/svg" xmlns:xlink="http://www.w3.org/1999/xlink">
    <!-- Generator: Sketch 50.2 (55047) - http://www.bohemiancoding.com/sketch -->
    <title>pixoDesign</title>
    <desc>Created with Sketch.</desc>
    <defs></defs>
    <g id="Template" stroke="none" stroke-width="1" fill="none" fill-rule="evenodd">
        <g id="Small-Viewport" transform="translate(-80.000000, -16.000000)">
            <g id="Header">
                <g id="pixoDesign" transform="translate(80.000000, 16.000000)">
                    <path d="M25,12.3023776 L32,11 L31.3873874,31.3942681 C31.3333333,32.8220598 30.2612613,33.9507871 28.9369369,33.9990233 C27.5855856,34.0376123 26.4414414,32.9281795 26.3513514,31.4810933 L25,12.3023776 Z" id="Shape" fill="#FBFAF7" fill-rule="nonzero"></path>
                    <path d="M65.3945087,12.0005072 C59.5976814,12.0582478 54.9429442,17.0239329 55.0005286,23.0963114 C55.058113,29.1686899 59.8088241,34.0477642 65.6056514,33.9996471 C71.4024787,33.9419066 76.0476185,28.9762215 75.9996315,22.903843 C75.9324498,16.8218411 71.1817386,11.9427667 65.3945087,12.0005072 Z M65.5288722,28.8607404 C62.9279779,28.8607404 60.8165507,26.7435879 60.8165507,24.1356408 C60.8165507,21.5276938 62.9279779,19.4105412 65.5288722,19.4105412 C68.1297666,19.4105412 70.2411938,21.5276938 70.2411938,24.1356408 C70.2411938,26.7435879 68.1297666,28.8607404 65.5288722,28.8607404 Z" id="Shape" fill="#FBFAF7" fill-rule="nonzero"></path>
                    <path d="M11.7120399,11.8595734 C9.75692992,11.8784651 7.94147063,12.4830002 6.40531277,13.5031533 L6.3122123,11 L0,13.0969812 L2.08545067,38.5346858 C2.20648129,40.017686 3.49126786,41.1134059 4.95294534,40.9906097 C6.35876253,40.8678135 7.42941801,39.6398515 7.36424768,38.2040806 L7.13149649,32.2342963 C8.56524382,33.0277486 10.1945022,33.4622582 11.916861,33.4528124 C17.5401297,33.3961372 22.0461928,28.5220728 21.9996426,22.5617343 C21.9344722,16.5919499 17.3353087,11.8028982 11.7120399,11.8595734 Z M11.8423806,28.4087224 C9.31935768,28.4087224 7.2711472,26.3306329 7.2711472,23.7708045 C7.2711472,21.2109761 9.31935768,19.1328866 11.8423806,19.1328866 C14.3654035,19.1328866 16.413614,21.2109761 16.413614,23.7708045 C16.413614,26.3306329 14.3654035,28.4087224 11.8423806,28.4087224 Z" id="Shape" fill="#FBFAF7" fill-rule="nonzero"></path>
                    <polygon id="Shape" fill="#F6DB60" fill-rule="nonzero" points="32.9169701 7.48459959 24.1493081 9 22 2.26386037 35 0"></polygon>
                    <path d="M48.9650232,22.7075935 L57,12.3040636 L49.2654867,11 L45.0589971,17.2305263 L41.5115887,12.2364455 L34,13.5018702 L41.3952802,22.6882741 L36.6460177,29.720558 C35.4247788,31.5365873 36.7235567,33.9804992 38.9237252,33.9804992 C39.776654,33.9804992 40.5811209,33.5844502 41.0948167,32.9179288 L45.2625369,27.5181394 L49.6725664,32.9952066 C50.1862621,33.6327489 50.9713443,34.0094784 51.7855036,33.9998186 C53.9759798,33.9901589 55.2456806,31.5269276 53.9759798,29.7495372 L48.9650232,22.7075935 Z" id="Shape" fill="#FBFAF7" fill-rule="nonzero"></path>
                    <path d="M97.248,32 C96.8639981,32 96.6120006,31.8200018 96.492,31.46 L96.252,30.272 C95.9959987,30.5600014 95.7280014,30.8199988 95.448,31.052 C95.1679986,31.2840012 94.8660016,31.4839992 94.542,31.652 C94.2179984,31.8200008 93.8700019,31.9499995 93.498,32.042 C93.1259981,32.1340005 92.7240022,32.18 92.292,32.18 C91.6199966,32.18 91.0040028,32.0400014 90.444,31.76 C89.8839972,31.4799986 89.402002,31.0740027 88.998,30.542 C88.593998,30.0099973 88.2820011,29.3520039 88.062,28.568 C87.8419989,27.7839961 87.732,26.888005 87.732,25.88 C87.732,24.9679954 87.8559988,24.1200039 88.104,23.336 C88.3520012,22.5519961 88.7079977,21.8720029 89.172,21.296 C89.6360023,20.7199971 90.1919968,20.2700016 90.84,19.946 C91.4880032,19.6219984 92.215996,19.46 93.024,19.46 C93.7120034,19.46 94.2999976,19.5699989 94.788,19.79 C95.2760024,20.0100011 95.7119981,20.3039982 96.096,20.672 L96.096,14.168 L99.06,14.168 L99.06,32 L97.248,32 Z M93.3,29.828 C93.9160031,29.828 94.4399978,29.7000013 94.872,29.444 C95.3040022,29.1879987 95.7119981,28.8240024 96.096,28.352 L96.096,22.832 C95.7599983,22.423998 95.394002,22.1360008 94.998,21.968 C94.601998,21.7999992 94.1760023,21.716 93.72,21.716 C93.2719978,21.716 92.8660018,21.7999992 92.502,21.968 C92.1379982,22.1360008 91.8300013,22.3899983 91.578,22.73 C91.3259987,23.0700017 91.1320007,23.5019974 90.996,24.026 C90.8599993,24.5500026 90.792,25.1679964 90.792,25.88 C90.792,26.6000036 90.8499994,27.2099975 90.966,27.71 C91.0820006,28.2100025 91.2479989,28.6179984 91.464,28.934 C91.6800011,29.2500016 91.9439984,29.4779993 92.256,29.618 C92.5680016,29.7580007 92.9159981,29.828 93.3,29.828 Z M107.352,19.496 C108.128004,19.496 108.841997,19.6199988 109.494,19.868 C110.146003,20.1160012 110.707998,20.4779976 111.18,20.954 C111.652002,21.4300024 112.019999,22.0139965 112.284,22.706 C112.548001,23.3980035 112.68,24.1879956 112.68,25.076 C112.68,25.3000011 112.67,25.4859993 112.65,25.634 C112.63,25.7820007 112.594,25.8979996 112.542,25.982 C112.49,26.0660004 112.42,26.1259998 112.332,26.162 C112.244,26.1980002 112.132001,26.216 111.996,26.216 L104.388,26.216 C104.476,27.4800063 104.815997,28.407997 105.408,29 C106.000003,29.592003 106.783995,29.888 107.76,29.888 C108.240002,29.888 108.653998,29.8320006 109.002,29.72 C109.350002,29.6079994 109.653999,29.4840007 109.914,29.348 C110.174001,29.2119993 110.401999,29.0880006 110.598,28.976 C110.794001,28.8639994 110.983999,28.808 111.168,28.808 C111.288001,28.808 111.392,28.8319998 111.48,28.88 C111.568,28.9280002 111.644,28.9959996 111.708,29.084 L112.572,30.164 C112.243998,30.5480019 111.876002,30.8699987 111.468,31.13 C111.059998,31.3900013 110.634002,31.5979992 110.19,31.754 C109.745998,31.9100008 109.294002,32.0199997 108.834,32.084 C108.373998,32.1480003 107.928002,32.18 107.496,32.18 C106.639996,32.18 105.844004,32.0380014 105.108,31.754 C104.371996,31.4699986 103.732003,31.0500028 103.188,30.494 C102.643997,29.9379972 102.216002,29.2500041 101.904,28.43 C101.591998,27.6099959 101.436,26.6600054 101.436,25.58 C101.436,24.7399958 101.571999,23.9500037 101.844,23.21 C102.116001,22.4699963 102.505997,21.8260027 103.014,21.278 C103.522003,20.7299973 104.141996,20.2960016 104.874,19.976 C105.606004,19.6559984 106.431995,19.496 107.352,19.496 Z M107.412,21.62 C106.547996,21.62 105.872002,21.8639976 105.384,22.352 C104.895998,22.8400024 104.584001,23.5319955 104.448,24.428 L110.016,24.428 C110.016,24.0439981 109.964001,23.6820017 109.86,23.342 C109.755999,23.0019983 109.596001,22.7040013 109.38,22.448 C109.163999,22.1919987 108.892002,21.9900007 108.564,21.842 C108.235998,21.6939993 107.852002,21.62 107.412,21.62 Z M122.4,22.088 C122.32,22.2160006 122.236,22.3059997 122.148,22.358 C122.06,22.4100003 121.948001,22.436 121.812,22.436 C121.667999,22.436 121.514001,22.3960004 121.35,22.316 C121.185999,22.2359996 120.996001,22.1460005 120.78,22.046 C120.563999,21.9459995 120.318001,21.8560004 120.042,21.776 C119.765999,21.6959996 119.440002,21.656 119.064,21.656 C118.479997,21.656 118.020002,21.7799988 117.684,22.028 C117.347998,22.2760012 117.18,22.599998 117.18,23 C117.18,23.2640013 117.265999,23.4859991 117.438,23.666 C117.610001,23.8460009 117.837999,24.0039993 118.122,24.14 C118.406001,24.2760007 118.727998,24.3979995 119.088,24.506 C119.448002,24.6140005 119.815998,24.7319994 120.192,24.86 C120.568002,24.9880006 120.935998,25.1339992 121.296,25.298 C121.656002,25.4620008 121.977999,25.6699987 122.262,25.922 C122.546001,26.1740013 122.773999,26.4759982 122.946,26.828 C123.118001,27.1800018 123.204,27.6039975 123.204,28.1 C123.204,28.692003 123.096001,29.2379975 122.88,29.738 C122.663999,30.2380025 122.348002,30.6699982 121.932,31.034 C121.515998,31.3980018 121.002003,31.681999 120.39,31.886 C119.777997,32.090001 119.076004,32.192 118.284,32.192 C117.859998,32.192 117.446002,32.1540004 117.042,32.078 C116.637998,32.0019996 116.250002,31.8960007 115.878,31.76 C115.505998,31.6239993 115.162002,31.4640009 114.846,31.28 C114.529998,31.0959991 114.252001,30.8960011 114.012,30.68 L114.696,29.552 C114.784,29.4159993 114.887999,29.3120004 115.008,29.24 C115.128001,29.1679996 115.279999,29.132 115.464,29.132 C115.648001,29.132 115.821999,29.1839995 115.986,29.288 C116.150001,29.3920005 116.339999,29.5039994 116.556,29.624 C116.772001,29.7440006 117.025999,29.8559995 117.318,29.96 C117.610001,30.0640005 117.979998,30.116 118.428,30.116 C118.780002,30.116 119.081999,30.0740004 119.334,29.99 C119.586001,29.9059996 119.793999,29.7960007 119.958,29.66 C120.122001,29.5239993 120.242,29.3660009 120.318,29.186 C120.394,29.0059991 120.432,28.820001 120.432,28.628 C120.432,28.3399986 120.346001,28.1040009 120.174,27.92 C120.001999,27.7359991 119.774001,27.5760007 119.49,27.44 C119.205999,27.3039993 118.882002,27.1820005 118.518,27.074 C118.153998,26.9659995 117.782002,26.8480006 117.402,26.72 C117.021998,26.5919994 116.650002,26.4420009 116.286,26.27 C115.921998,26.0979991 115.598001,25.8800013 115.314,25.616 C115.029999,25.3519987 114.802001,25.0280019 114.63,24.644 C114.457999,24.2599981 114.372,23.7960027 114.372,23.252 C114.372,22.7479975 114.471999,22.2680023 114.672,21.812 C114.872001,21.3559977 115.165998,20.9580017 115.554,20.618 C115.942002,20.2779983 116.425997,20.006001 117.006,19.802 C117.586003,19.597999 118.255996,19.496 119.016,19.496 C119.864004,19.496 120.635997,19.6359986 121.332,19.916 C122.028003,20.1960014 122.607998,20.5639977 123.072,21.02 L122.4,22.088 Z M128.736,19.688 L128.736,32 L125.772,32 L125.772,19.688 L128.736,19.688 Z M129.18,16.1 C129.18,16.3560013 129.128001,16.5959989 129.024,16.82 C128.919999,17.0440011 128.782001,17.2399992 128.61,17.408 C128.437999,17.5760008 128.236001,17.7099995 128.004,17.81 C127.771999,17.9100005 127.524001,17.96 127.26,17.96 C127.003999,17.96 126.762001,17.9100005 126.534,17.81 C126.305999,17.7099995 126.108001,17.5760008 125.94,17.408 C125.771999,17.2399992 125.638,17.0440011 125.538,16.82 C125.437999,16.5959989 125.388,16.3560013 125.388,16.1 C125.388,15.8359987 125.437999,15.5880012 125.538,15.356 C125.638,15.1239988 125.771999,14.9240008 125.94,14.756 C126.108001,14.5879992 126.305999,14.4540005 126.534,14.354 C126.762001,14.2539995 127.003999,14.204 127.26,14.204 C127.524001,14.204 127.771999,14.2539995 128.004,14.354 C128.236001,14.4540005 128.437999,14.5879992 128.61,14.756 C128.782001,14.9240008 128.919999,15.1239988 129.024,15.356 C129.128001,15.5880012 129.18,15.8359987 129.18,16.1 Z M136.344,19.472 C136.872003,19.472 137.367998,19.5259995 137.832,19.634 C138.296002,19.7420005 138.719998,19.899999 139.104,20.108 L142.644,20.108 L142.644,21.212 C142.644,21.3960009 142.596,21.5399995 142.5,21.644 C142.404,21.7480005 142.240001,21.8199998 142.008,21.86 L140.904,22.064 C140.984,22.272001 141.046,22.4919988 141.09,22.724 C141.134,22.9560012 141.156,23.1999987 141.156,23.456 C141.156,24.064003 141.034001,24.6139975 140.79,25.106 C140.545999,25.5980025 140.210002,26.0159983 139.782,26.36 C139.353998,26.7040017 138.846003,26.9699991 138.258,27.158 C137.669997,27.3460009 137.032003,27.44 136.344,27.44 C135.879998,27.44 135.428002,27.3960004 134.988,27.308 C134.603998,27.5400012 134.412,27.7999986 134.412,28.088 C134.412,28.3360012 134.525999,28.5179994 134.754,28.634 C134.982001,28.7500006 135.281998,28.8319998 135.654,28.88 C136.026002,28.9280002 136.447998,28.9579999 136.92,28.97 C137.392002,28.9820001 137.875998,29.0079998 138.372,29.048 C138.868002,29.0880002 139.351998,29.1579995 139.824,29.258 C140.296002,29.3580005 140.717998,29.5159989 141.09,29.732 C141.462002,29.9480011 141.761999,30.2419981 141.99,30.614 C142.218001,30.9860019 142.332,31.4639971 142.332,32.048 C142.332,32.5920027 142.198001,33.1199974 141.93,33.632 C141.661999,34.1440026 141.274003,34.599998 140.766,35 C140.257997,35.400002 139.636004,35.7219988 138.9,35.966 C138.163996,36.2100012 137.324005,36.332 136.38,36.332 C135.443995,36.332 134.632003,36.2420009 133.944,36.062 C133.255997,35.8819991 132.686002,35.6420015 132.234,35.342 C131.781998,35.0419985 131.444001,34.696002 131.22,34.304 C130.995999,33.911998 130.884,33.5040021 130.884,33.08 C130.884,32.5039971 131.059998,32.020002 131.412,31.628 C131.764002,31.235998 132.251997,30.9240012 132.876,30.692 C132.571998,30.5239992 132.328001,30.3000014 132.144,30.02 C131.959999,29.7399986 131.868,29.3760022 131.868,28.928 C131.868,28.7439991 131.9,28.554001 131.964,28.358 C132.028,28.161999 132.125999,27.968001 132.258,27.776 C132.390001,27.583999 132.555999,27.4020009 132.756,27.23 C132.956001,27.0579991 133.191999,26.9040007 133.464,26.768 C132.839997,26.4319983 132.350002,25.9840028 131.994,25.424 C131.637998,24.8639972 131.46,24.2080038 131.46,23.456 C131.46,22.847997 131.581999,22.2980025 131.826,21.806 C132.070001,21.3139975 132.409998,20.8940017 132.846,20.546 C133.282002,20.1979983 133.797997,19.9320009 134.394,19.748 C134.990003,19.5639991 135.639996,19.472 136.344,19.472 Z M139.596,32.552 C139.596,32.3119988 139.524001,32.1160008 139.38,31.964 C139.235999,31.8119992 139.040001,31.6940004 138.792,31.61 C138.543999,31.5259996 138.254002,31.4640002 137.922,31.424 C137.589998,31.3839998 137.238002,31.3540001 136.866,31.334 C136.493998,31.3139999 136.110002,31.2940001 135.714,31.274 C135.317998,31.2539999 134.936002,31.2200002 134.568,31.172 C134.231998,31.3560009 133.962001,31.5739987 133.758,31.826 C133.553999,32.0780013 133.452,32.3679984 133.452,32.696 C133.452,32.9120011 133.505999,33.1139991 133.614,33.302 C133.722001,33.4900009 133.893999,33.6519993 134.13,33.788 C134.366001,33.9240007 134.671998,34.0299996 135.048,34.106 C135.424002,34.1820004 135.883997,34.22 136.428,34.22 C136.980003,34.22 137.455998,34.1780004 137.856,34.094 C138.256002,34.0099996 138.585999,33.8940007 138.846,33.746 C139.106001,33.5979993 139.295999,33.422001 139.416,33.218 C139.536001,33.013999 139.596,32.7920012 139.596,32.552 Z M136.344,25.544 C136.712002,25.544 137.031999,25.4940005 137.304,25.394 C137.576001,25.2939995 137.801999,25.1560009 137.982,24.98 C138.162001,24.8039991 138.298,24.5920012 138.39,24.344 C138.482,24.0959988 138.528,23.8240015 138.528,23.528 C138.528,22.919997 138.346002,22.4380018 137.982,22.082 C137.617998,21.7259982 137.072004,21.548 136.344,21.548 C135.615996,21.548 135.070002,21.7259982 134.706,22.082 C134.341998,22.4380018 134.16,22.919997 134.16,23.528 C134.16,23.8160014 134.206,24.0839988 134.298,24.332 C134.39,24.5800012 134.525999,24.7939991 134.706,24.974 C134.886001,25.1540009 135.113999,25.2939995 135.39,25.394 C135.666001,25.4940005 135.983998,25.544 136.344,25.544 Z M144.504,32 L144.504,19.688 L146.316,19.688 C146.700002,19.688 146.951999,19.8679982 147.072,20.228 L147.276,21.2 C147.524001,20.9439987 147.785999,20.712001 148.062,20.504 C148.338001,20.295999 148.629998,20.1160008 148.938,19.964 C149.246002,19.8119992 149.575998,19.6960004 149.928,19.616 C150.280002,19.5359996 150.663998,19.496 151.08,19.496 C151.752003,19.496 152.347997,19.6099989 152.868,19.838 C153.388003,20.0660011 153.821998,20.3859979 154.17,20.798 C154.518002,21.2100021 154.781999,21.7019971 154.962,22.274 C155.142001,22.8460029 155.232,23.4759966 155.232,24.164 L155.232,32 L152.268,32 L152.268,24.164 C152.268,23.4119962 152.094002,22.8300021 151.746,22.418 C151.397998,22.0059979 150.876003,21.8 150.18,21.8 C149.667997,21.8 149.188002,21.9159988 148.74,22.148 C148.291998,22.3800012 147.868002,22.695998 147.468,23.096 L147.468,32 L144.504,32 Z" id="Headline-4" fill="#F6DB60"></path>
                    <path d="M79.876,31.368 C79.876,31.1199988 79.9219995,30.8840011 80.014,30.66 C80.1060005,30.4359989 80.2339992,30.2440008 80.398,30.084 C80.5620008,29.9239992 80.7559989,29.7960005 80.98,29.7 C81.2040011,29.6039995 81.4439987,29.556 81.7,29.556 C81.9480012,29.556 82.1839989,29.6039995 82.408,29.7 C82.6320011,29.7960005 82.8239992,29.9239992 82.984,30.084 C83.1440008,30.2440008 83.2719995,30.4359989 83.368,30.66 C83.4640005,30.8840011 83.512,31.1199988 83.512,31.368 C83.512,31.6240013 83.4640005,31.8619989 83.368,32.082 C83.2719995,32.3020011 83.1440008,32.4919992 82.984,32.652 C82.8239992,32.8120008 82.6320011,32.9379995 82.408,33.03 C82.1839989,33.1220005 81.9480012,33.168 81.7,33.168 C81.4439987,33.168 81.2040011,33.1220005 80.98,33.03 C80.7559989,32.9379995 80.5620008,32.8120008 80.398,32.652 C80.2339992,32.4919992 80.1060005,32.3020011 80.014,32.082 C79.9219995,31.8619989 79.876,31.6240013 79.876,31.368 Z" id="." fill="#FBFAF7"></path>
                </g>
            </g>
        </g>
    </g>
</svg>